<?xml version="1.0" standalone="no"?>
<!DOCTYPE svg PUBLIC "-//W3C//DTD SVG 20010904//EN"
 "http://www.w3.org/TR/2001/REC-SVG-20010904/DTD/svg10.dtd">
<svg version="1.0" xmlns="http://www.w3.org/2000/svg"
 width="500.000000pt" height="500.000000pt" viewBox="0 0 500.000000 500.000000"
 preserveAspectRatio="xMidYMid meet">

<g transform="translate(0.000000,500.000000) scale(0.100000,-0.100000)"
fill="#000000" stroke="none">
<path d="M0 2500 l0 -2500 2500 0 2500 0 0 2500 0 2500 -2500 0 -2500 0 0
-2500z m2542 202 c993 -992 1458 -1464 1458 -1478 0 -32 -24 -57 -55 -56 -23
0 -243 215 -1486 1458 -803 803 -1459 1464 -1459 1470 0 22 42 64 63 64 16 0
440 -418 1479 -1458z m1438 1438 c20 -20 20 -33 20 -982 0 -881 -1 -963 -17
-980 -18 -20 -45 -23 -74 -8 -19 10 -19 31 -19 903 l0 892 -493 -493 c-376
-376 -498 -492 -516 -492 -31 0 -61 27 -61 54 0 26 1097 1126 1123 1126 9 0
26 -9 37 -20z m-2461 -1311 c597 -591 591 -585 591 -611 0 -12 -7 -30 -17 -40
-40 -44 -44 -41 -520 434 l-453 452 0 -931 c0 -1025 4 -963 -60 -963 -63 0
-60 -57 -60 1048 l0 1003 25 24 c13 14 29 25 36 25 7 0 213 -199 458 -441z
m181 -1661 c1 -18 19 -5 50 37 19 25 37 45 42 45 4 0 8 -38 8 -85 0 -84 0 -85
-25 -85 -21 0 -25 5 -25 31 l0 31 -19 -23 -19 -24 -21 25 -20 25 -1 -32 c0
-26 -4 -33 -20 -33 -18 0 -20 7 -20 88 l0 87 35 -40 c19 -22 34 -43 35 -47z
m419 10 c18 -40 35 -79 38 -85 3 -9 -4 -13 -21 -13 -14 0 -26 5 -26 10 0 6
-13 10 -29 10 -17 0 -33 -4 -36 -10 -8 -13 -45 -13 -45 0 0 14 73 160 81 160
3 0 21 -33 38 -72z m361 52 c24 -24 25 -39 6 -65 -12 -17 -12 -23 0 -47 18
-36 18 -38 -8 -38 -15 0 -30 11 -43 33 l-19 32 -4 -32 c-3 -27 -8 -33 -28 -33
-24 0 -24 2 -24 85 l0 85 50 0 c37 0 55 -5 70 -20z m368 4 c22 -15 22 -17 5
-29 -11 -9 -22 -10 -27 -4 -14 13 -50 11 -64 -3 -17 -17 -15 -53 3 -68 9 -8
28 -10 49 -6 38 7 55 -6 36 -29 -16 -20 -89 -19 -117 0 -42 30 -39 108 6 142
23 18 83 16 109 -3z m272 -16 l0 -33 26 33 c18 23 34 32 55 32 l30 0 -32 -40
-33 -40 32 -45 32 -45 -29 0 c-21 0 -37 9 -55 33 l-26 32 0 -32 c0 -28 -3 -33
-25 -33 -25 0 -25 1 -25 85 0 84 0 85 25 85 22 0 25 -5 25 -32z m-794 -414
c18 -15 18 -15 -3 -5 -27 14 -47 6 -61 -22 -6 -12 -11 -16 -11 -9 -1 13 34 52
47 52 5 0 17 -7 28 -16z m648 10 c9 -3 16 -11 16 -16 0 -6 -6 -5 -15 2 -15 12
-35 6 -35 -11 0 -5 12 -14 26 -19 16 -7 24 -16 22 -27 -4 -20 -35 -30 -50 -15
-6 6 0 8 16 5 35 -7 36 22 1 31 -27 7 -35 40 -12 49 6 3 13 6 14 6 1 1 8 -2
17 -5z m-926 -82 c34 4 44 45 16 65 -10 7 -13 13 -8 13 17 0 34 -23 34 -45 0
-29 -19 -45 -52 -45 -27 0 -28 2 -26 48 l1 47 4 -43 c4 -40 6 -43 31 -40z
m129 11 c-2 -16 -4 -5 -4 22 0 28 2 40 4 28 2 -13 2 -35 0 -50z m250 0 c-2
-16 -4 -5 -4 22 0 28 2 40 4 28 2 -13 2 -35 0 -50z m120 0 c-2 -16 -4 -5 -4
22 0 28 2 40 4 28 2 -13 2 -35 0 -50z m168 12 c10 -25 11 -35 4 -27 -7 6 -22
12 -34 12 -12 0 -27 -6 -34 -12 -10 -11 -10 -7 0 16 7 15 15 23 17 17 5 -15
32 -14 32 2 0 6 -5 19 -10 27 -8 12 -10 12 -10 1 0 -8 -3 -12 -6 -8 -3 3 -3
11 1 17 9 15 20 4 40 -45z m123 -28 c24 -4 24 -4 -5 -6 l-33 -1 2 48 1 47 4
-42 c4 -36 7 -42 31 -46z m-488 37 c0 -18 -23 -44 -40 -44 -27 0 -50 11 -50
23 0 7 4 7 12 -1 16 -16 43 -15 57 2 10 12 8 15 -11 19 -20 4 -20 4 5 6 15 0
27 -2 27 -5z"/>
<path d="M2070 1145 c0 -8 5 -15 10 -15 6 0 10 7 10 15 0 8 -4 15 -10 15 -5 0
-10 -7 -10 -15z"/>
<path d="M2410 1195 c0 -8 9 -15 20 -15 11 0 20 7 20 15 0 8 -9 15 -20 15 -11
0 -20 -7 -20 -15z"/>
</g>
</svg>
